<svg width="512" height="512" viewBox="0 0 512 512" fill="none" xmlns="http://www.w3.org/2000/svg">
<g clip-path="url(#clip0_34_174)">
<path fill-rule="evenodd" clip-rule="evenodd" d="M396.028 133.976V392.26H476.045L476.046 133.981L456.041 122.031L436.037 134.335L416.032 122.031L396.028 133.976Z" fill="url(#paint0_linear_34_174)"/>
<path fill-rule="evenodd" clip-rule="evenodd" d="M155.98 241.033H235.997V476.022H155.98V241.033Z" fill="url(#paint1_linear_34_174)"/>
<path d="M502.051 466.022H486.046L486.047 118.33C486.047 116.817 485.703 115.323 485.043 113.961L445.035 31.5634C441.51 24.1089 430.562 24.1119 427.039 31.5634L387.031 113.961C386.37 115.323 386.026 116.816 386.026 118.33L386.025 466.022H366.022V168.018C366.022 162.494 361.543 158.016 356.02 158.016H276.004C270.481 158.016 266.002 162.494 266.002 168.018V466.022H125.973V311.048C125.973 305.524 121.494 301.046 115.971 301.046H35.9546C30.4315 301.046 25.9526 305.524 25.9526 311.048V466.022H9.94929C-3.32143 466.551 -3.31143 485.502 9.94929 486.026H502.051C515.322 485.498 515.312 466.546 502.051 466.022V466.022ZM418.306 95.3485C429.822 98.8012 442.25 98.8012 453.767 95.3485L466.043 120.631L466.042 420.57H406.03L406.031 120.631L418.306 95.3485ZM436.037 58.833L444.857 76.9977C439.048 78.254 433.025 78.254 427.217 76.9977L436.037 58.833ZM406.03 440.574H466.042V466.022H406.03V440.574ZM286.006 178.02H346.018V466.022H286.006V178.02ZM45.9567 321.05H105.969V466.022H45.9567V321.05Z" fill="#494949"/>
</g>
<defs>
<linearGradient id="paint0_linear_34_174" x1="436.037" y1="122.031" x2="436.037" y2="392.26" gradientUnits="userSpaceOnUse">
<stop stop-color="#F3B572"/>
<stop offset="1" stop-color="#48A2FC"/>
</linearGradient>
<linearGradient id="paint1_linear_34_174" x1="195.989" y1="241.033" x2="195.989" y2="476.022" gradientUnits="userSpaceOnUse">
<stop stop-color="#F3B572"/>
<stop offset="1" stop-color="#48A2FC"/>
</linearGradient>
<clipPath id="clip0_34_174">
<rect width="512" height="512" fill="white"/>
</clipPath>
</defs>
</svg>
