<svg width="512" height="512" viewBox="0 0 512 512" fill="none" xmlns="http://www.w3.org/2000/svg">
<path d="M271.074 376.625C315.04 332.659 315.04 261.376 271.074 217.41C227.108 173.444 155.825 173.444 111.859 217.41C67.8934 261.376 67.8935 332.659 111.859 376.625C155.825 420.591 227.108 420.591 271.074 376.625Z" fill="url(#paint0_linear_28_131)"/>
<path d="M462.057 22H49.943C22.404 22 0 46.2795 0 76.1238V436.876C0 466.721 22.404 491 49.943 491H462.057C489.596 491 512 466.721 512 436.876V76.1238C512 46.2795 489.596 22 462.057 22ZM20 76.1238C20 58.2306 33.432 43.6742 49.943 43.6742H462.057C478.568 43.6742 492 58.2317 492 76.1238V110.925H20V76.1238ZM492 436.876C492 454.769 478.567 469.326 462.057 469.326H49.943C33.432 469.326 20 454.769 20 436.876V132.599H492V436.876Z" fill="white" fill-opacity="0.76"/>
<path d="M273.529 68H73C67.477 68 63 72.477 63 78C63 83.523 67.477 88 73 88H273.528C279.051 88 283.528 83.523 283.528 78C283.529 72.477 279.052 68 273.529 68Z" fill="white" fill-opacity="0.76"/>
<path d="M353.168 74.1779C351.554 70.2409 347.461 67.7229 343.219 68.0299C339.052 68.3319 335.5 71.2629 334.327 75.2549C333.15 79.2589 334.741 83.7029 338.116 86.1289C341.456 88.5289 346.067 88.5989 349.488 86.3179C353.403 83.7069 354.977 78.5199 353.168 74.1779V74.1779Z" fill="white" fill-opacity="0.76"/>
<path d="M400.658 74.1779C399.044 70.2399 394.952 67.7229 390.709 68.0299C386.562 68.3299 382.959 71.2619 381.813 75.2549C380.659 79.2769 382.213 83.6909 385.606 86.1289C388.946 88.5289 393.557 88.5989 396.978 86.3179C400.893 83.7069 402.467 78.5199 400.658 74.1779V74.1779Z" fill="white" fill-opacity="0.76"/>
<path d="M448.148 74.1779C446.534 70.2399 442.442 67.7229 438.199 68.0299C434.052 68.3299 430.447 71.2619 429.303 75.2549C428.15 79.2769 429.702 83.6899 433.096 86.1289C436.436 88.5299 441.047 88.5979 444.468 86.3179C448.384 83.7079 449.957 78.5199 448.148 74.1779V74.1779Z" fill="white" fill-opacity="0.76"/>
<path d="M352.782 258.113H433.08C438.603 258.113 443.08 253.636 443.08 248.113C443.08 242.59 438.603 238.113 433.08 238.113H352.782C347.259 238.113 342.782 242.59 342.782 248.113C342.782 253.636 347.259 258.113 352.782 258.113Z" fill="white" fill-opacity="0.76"/>
<path d="M433.08 287.028H372.783C367.26 287.028 362.783 291.505 362.783 297.028C362.783 302.551 367.26 307.028 372.783 307.028H433.08C438.603 307.028 443.08 302.551 443.08 297.028C443.08 291.505 438.603 287.028 433.08 287.028V287.028Z" fill="white" fill-opacity="0.76"/>
<path d="M352.782 355.943H433.08C438.603 355.943 443.08 351.466 443.08 345.943C443.08 340.42 438.603 335.943 433.08 335.943H352.782C347.259 335.943 342.782 340.42 342.782 345.943C342.782 351.466 347.259 355.943 352.782 355.943Z" fill="white" fill-opacity="0.76"/>
<path d="M177.457 339.684C178.497 340.027 179.552 340.19 180.589 340.19C184.788 340.19 188.698 337.523 190.085 333.318L211.947 267C213.676 261.755 210.826 256.101 205.581 254.372C200.336 252.643 194.682 255.494 192.953 260.738L171.091 327.056C169.361 332.301 172.212 337.955 177.457 339.684V339.684Z" fill="white" fill-opacity="0.76"/>
<path d="M231.668 339.049C233.246 339.963 234.97 340.398 236.671 340.397C240.122 340.397 243.479 338.609 245.334 335.408L265.049 301.373C266.876 298.219 266.842 294.32 264.96 291.198L245.245 258.497C242.393 253.767 236.247 252.246 231.518 255.096C226.788 257.948 225.265 264.094 228.117 268.823L244.781 296.462L228.028 325.383C225.259 330.163 226.889 336.281 231.668 339.049V339.049Z" fill="white" fill-opacity="0.76"/>
<path d="M137.704 335.408C139.558 338.609 142.915 340.398 146.367 340.397C148.068 340.397 149.792 339.962 151.37 339.049C156.149 336.281 157.779 330.162 155.011 325.384L138.258 296.463L154.922 268.824C157.774 264.095 156.251 257.949 151.521 255.097C146.792 252.246 140.645 253.769 137.794 258.498L118.079 291.199C116.197 294.321 116.162 298.22 117.99 301.374L137.704 335.408Z" fill="white" fill-opacity="0.76"/>
<defs>
<linearGradient id="paint0_linear_28_131" x1="111.859" y1="217.41" x2="271.074" y2="376.625" gradientUnits="userSpaceOnUse">
<stop stop-color="#462929"/>
<stop offset="1" stop-color="#00316B"/>
</linearGradient>
</defs>
</svg>
