<svg width="512" height="512" viewBox="0 0 512 512" fill="none" xmlns="http://www.w3.org/2000/svg">
<g clip-path="url(#clip0_28_180)">
<g filter="url(#filter0_f_28_180)">
<path fill-rule="evenodd" clip-rule="evenodd" d="M451.683 451.683V200.09H286.001V309.672L256.001 376.33L226.001 309.672V200.09H60.3179V451.683H451.683Z" fill="url(#paint0_linear_28_180)"/>
</g>
<path fill-rule="evenodd" clip-rule="evenodd" d="M451.683 451.683V200.09H286.001V309.672L256.001 376.33L226.001 309.672V200.09H60.3179V451.683H451.683Z" fill="url(#paint1_linear_28_180)"/>
<path d="M479.637 89.4538H295.999V9.99998C295.999 4.47699 291.522 0 285.999 0H226C220.477 0 216 4.47699 216 9.99998V89.4538H32.3639C14.518 89.4538 0 103.972 0 121.817V479.636C0 497.482 14.518 512 32.3639 512H479.637C497.482 512 512 497.482 512 479.636V121.817C512 103.972 497.482 89.4538 479.637 89.4538V89.4538ZM479.637 109.454C486.454 109.454 492 115 492 121.817V139.772H295.999V109.454H479.637ZM236.001 20H276V307.524L256.001 351.962L236.001 307.524V20ZM32.3639 109.454H216.001V139.772H20V121.817C20 115 25.5469 109.454 32.3639 109.454ZM479.637 492H32.3639C25.5469 492 20 486.454 20 479.636V159.772H216V309.67C216 311.085 216.3 312.484 216.881 313.774L246.881 380.432C250.305 388.233 261.696 388.23 265.118 380.432L295.118 313.774C295.699 312.484 295.999 311.085 295.999 309.67V159.772H492V479.636C492 486.454 486.454 492 479.637 492Z" fill="white" fill-opacity="0.76"/>
<path d="M151.112 310.602V280.774C151.112 272.565 157.791 265.886 166.001 265.886C171.524 265.886 176.001 261.409 176.001 255.886C176.001 250.363 171.524 245.886 166.001 245.886C146.763 245.886 131.112 261.537 131.112 280.774V305.772L115.639 318.053C110.647 321.813 110.647 329.958 115.639 333.719L131.112 345.999V370.997C131.112 390.235 146.763 405.886 166.001 405.886C171.524 405.886 176.001 401.409 176.001 395.886C176.001 390.363 171.524 385.886 166.001 385.886C157.791 385.886 151.112 379.207 151.112 370.997V341.169C151.112 338.118 149.719 335.233 147.329 333.336L137.941 325.886L147.329 318.435C149.719 316.538 151.112 313.653 151.112 310.602V310.602Z" fill="white" fill-opacity="0.76"/>
<path d="M396.363 318.053L380.889 305.772V280.774C380.889 261.537 365.238 245.886 346 245.886C340.477 245.886 336 250.363 336 255.886C336 261.409 340.477 265.886 346 265.886C354.209 265.886 360.889 272.565 360.889 280.774V310.602C360.889 313.653 362.282 316.538 364.672 318.435L374.06 325.886L364.672 333.336C362.282 335.233 360.889 338.118 360.889 341.169V370.997C360.889 379.206 354.21 385.886 346 385.886C340.477 385.886 336 390.363 336 395.886C336 401.409 340.477 405.886 346 405.886C365.238 405.886 380.889 390.235 380.889 370.997V345.999L396.363 333.719C401.355 329.958 401.355 321.813 396.363 318.053Z" fill="white" fill-opacity="0.76"/>
</g>
<defs>
<filter id="filter0_f_28_180" x="56.3179" y="196.09" width="399.365" height="259.593" filterUnits="userSpaceOnUse" color-interpolation-filters="sRGB">
<feFlood flood-opacity="0" result="BackgroundImageFix"/>
<feBlend mode="normal" in="SourceGraphic" in2="BackgroundImageFix" result="shape"/>
<feGaussianBlur stdDeviation="2" result="effect1_foregroundBlur_28_180"/>
</filter>
<linearGradient id="paint0_linear_28_180" x1="256" y1="200.09" x2="256" y2="451.683" gradientUnits="userSpaceOnUse">
<stop stop-color="#462929"/>
<stop offset="1" stop-color="#00316B"/>
</linearGradient>
<linearGradient id="paint1_linear_28_180" x1="256" y1="200.09" x2="256" y2="451.683" gradientUnits="userSpaceOnUse">
<stop stop-color="#462929"/>
<stop offset="1" stop-color="#00316B"/>
</linearGradient>
<clipPath id="clip0_28_180">
<rect width="512" height="512" fill="white"/>
</clipPath>
</defs>
</svg>
