<svg width="512" height="512" viewBox="0 0 512 512" fill="none" xmlns="http://www.w3.org/2000/svg">
<g clip-path="url(#clip0_34_93)">
<g filter="url(#filter0_f_34_93)">
<path fill-rule="evenodd" clip-rule="evenodd" d="M451.683 451.683V200.09H286.001V309.672L256.001 376.33L226.001 309.672V200.09H60.3184V451.683H451.683Z" fill="url(#paint0_linear_34_93)"/>
</g>
<path fill-rule="evenodd" clip-rule="evenodd" d="M451.683 451.683V200.09H286.001V309.672L256.001 376.33L226.001 309.672V200.09H60.3184V451.683H451.683Z" fill="url(#paint1_linear_34_93)"/>
<path d="M479.637 89.4538H295.999V9.99998C295.999 4.47699 291.522 0 285.999 0H226C220.477 0 216 4.47699 216 9.99998V89.4538H32.3639C14.518 89.4538 0 103.972 0 121.817V479.636C0 497.482 14.518 512 32.3639 512H479.637C497.482 512 512 497.482 512 479.636V121.817C512 103.972 497.482 89.4538 479.637 89.4538V89.4538ZM479.637 109.454C486.454 109.454 492 115 492 121.817V139.772H295.999V109.454H479.637ZM236.001 20H276V307.524L256.001 351.962L236.001 307.524V20ZM32.3639 109.454H216.001V139.772H20V121.817C20 115 25.5469 109.454 32.3639 109.454ZM479.637 492H32.3639C25.5469 492 20 486.454 20 479.636V159.772H216V309.67C216 311.085 216.3 312.484 216.881 313.774L246.881 380.432C250.305 388.233 261.696 388.23 265.118 380.432L295.118 313.774C295.699 312.484 295.999 311.085 295.999 309.67V159.772H492V479.636C492 486.454 486.454 492 479.637 492Z" fill="#494949"/>
<path d="M151.112 310.603V280.775C151.112 272.566 157.791 265.887 166.001 265.887C171.524 265.887 176.001 261.41 176.001 255.887C176.001 250.364 171.524 245.887 166.001 245.887C146.763 245.887 131.112 261.538 131.112 280.775V305.773L115.639 318.054C110.647 321.814 110.647 329.959 115.639 333.72L131.112 346V370.998C131.112 390.236 146.763 405.887 166.001 405.887C171.524 405.887 176.001 401.41 176.001 395.887C176.001 390.364 171.524 385.887 166.001 385.887C157.791 385.887 151.112 379.208 151.112 370.998V341.17C151.112 338.119 149.719 335.234 147.329 333.337L137.941 325.887L147.329 318.436C149.719 316.539 151.112 313.654 151.112 310.603V310.603Z" fill="#494949"/>
<path d="M396.362 318.054L380.888 305.773V280.775C380.888 261.538 365.237 245.887 345.999 245.887C340.476 245.887 335.999 250.364 335.999 255.887C335.999 261.41 340.476 265.887 345.999 265.887C354.208 265.887 360.888 272.566 360.888 280.775V310.603C360.888 313.654 362.281 316.539 364.671 318.436L374.059 325.887L364.671 333.337C362.281 335.234 360.888 338.119 360.888 341.17V370.998C360.888 379.207 354.209 385.887 345.999 385.887C340.476 385.887 335.999 390.364 335.999 395.887C335.999 401.41 340.476 405.887 345.999 405.887C365.237 405.887 380.888 390.236 380.888 370.998V346L396.362 333.72C401.354 329.959 401.354 321.814 396.362 318.054Z" fill="#494949"/>
</g>
<defs>
<filter id="filter0_f_34_93" x="56.3184" y="196.09" width="399.365" height="259.593" filterUnits="userSpaceOnUse" color-interpolation-filters="sRGB">
<feFlood flood-opacity="0" result="BackgroundImageFix"/>
<feBlend mode="normal" in="SourceGraphic" in2="BackgroundImageFix" result="shape"/>
<feGaussianBlur stdDeviation="2" result="effect1_foregroundBlur_34_93"/>
</filter>
<linearGradient id="paint0_linear_34_93" x1="256.001" y1="200.09" x2="256.001" y2="451.683" gradientUnits="userSpaceOnUse">
<stop stop-color="#F3B572"/>
<stop offset="1" stop-color="#48A2FC"/>
</linearGradient>
<linearGradient id="paint1_linear_34_93" x1="256.001" y1="200.09" x2="256.001" y2="451.683" gradientUnits="userSpaceOnUse">
<stop stop-color="#F3B572"/>
<stop offset="1" stop-color="#48A2FC"/>
</linearGradient>
<clipPath id="clip0_34_93">
<rect width="512" height="512" fill="white"/>
</clipPath>
</defs>
</svg>
