<svg width="512" height="512" viewBox="0 0 512 512" fill="none" xmlns="http://www.w3.org/2000/svg">
<g clip-path="url(#clip0_34_142)">
<path d="M246.382 207.181C214.682 186.892 195.755 152.309 195.755 114.671V77.3558L256 53.2578L316.245 77.3558V114.671C316.245 152.309 297.318 186.892 265.617 207.181L256 213.336L246.382 207.181Z" fill="url(#paint0_linear_34_142)"/>
<path d="M166.43 170.649C167.8 174.048 169.29 177.388 170.9 180.669V180.689C175.91 190.91 182.07 200.53 189.28 209.379C194.29 215.539 199.81 221.319 205.8 226.649C211.66 231.879 217.99 236.688 224.73 241.008L256 261.019L287.27 241.009C313.941 223.939 334.09 199.179 345.571 170.65L345.566 170.653H441.756V391.55H70.2451V170.652H166.438" fill="url(#paint1_linear_34_142)"/>
<path d="M502 421.714H491.918V160.612C491.918 138.489 473.919 120.49 451.796 120.49H366.295C366.364 118.557 366.408 116.62 366.408 114.676V50.1627C366.408 46.0737 363.919 42.3957 360.122 40.8777L259.714 0.71475C257.329 -0.23825 254.67 -0.23825 252.286 0.71475L151.879 40.8777C148.082 42.3957 145.591 46.0727 145.591 50.1627V114.676C145.591 116.614 145.64 118.553 145.712 120.49H60.204C38.08 120.49 20.081 138.489 20.081 160.612V421.714H10C4.477 421.714 0 426.192 0 431.714V472C0 494.056 17.944 512 40 512H472C494.056 512 512 494.056 512 472V431.714C512 426.191 507.523 421.714 502 421.714ZM165.592 56.9347L256 20.7708L346.408 56.9337V114.676C346.408 162.643 322.284 206.721 281.877 232.586L256 249.148L230.123 232.586C188.809 206.148 165.592 161.027 165.592 114.676V56.9347ZM40.081 160.612C40.081 149.516 49.108 140.49 60.204 140.49H147.721C155.172 185.857 181.396 225.153 219.343 249.431L250.61 269.443C253.896 271.547 258.104 271.546 261.391 269.443L292.66 249.43C331.475 224.583 357.138 185.028 364.336 140.489H451.797C462.893 140.489 471.919 149.515 471.919 160.611V421.713H40.081V160.612ZM492 472C492 483.028 483.028 492 472 492H40C28.972 492 20 483.028 20 472V441.714H492V472Z" fill="#494949"/>
<path d="M243.908 157.643C247.812 161.546 254.145 161.547 258.051 157.643L288.173 127.521C292.078 123.616 292.078 117.284 288.173 113.378C284.267 109.474 277.937 109.474 274.03 113.378L250.979 136.429L242.989 128.439C239.083 124.536 232.752 124.536 228.847 128.439C224.942 132.344 224.941 138.676 228.846 142.582L243.908 157.643Z" fill="#494949"/>
<path d="M180.694 341.388H110.408C104.885 341.388 100.408 345.866 100.408 351.388C100.408 356.91 104.885 361.388 110.408 361.388H180.694C186.217 361.388 190.694 356.91 190.694 351.388C190.694 345.866 186.217 341.388 180.694 341.388Z" fill="#494949"/>
<path d="M180.694 301.225H110.408C104.885 301.225 100.408 305.702 100.408 311.225C100.408 316.747 104.885 321.225 110.408 321.225H180.694C186.217 321.225 190.694 316.747 190.694 311.225C190.694 305.702 186.217 301.225 180.694 301.225Z" fill="#494949"/>
<path d="M180.694 261.062H110.408C104.885 261.062 100.408 265.54 100.408 271.062C100.408 276.584 104.885 281.062 110.408 281.062H180.694C186.217 281.062 190.694 276.584 190.694 271.062C190.694 265.539 186.217 261.062 180.694 261.062Z" fill="#494949"/>
<path d="M401.592 341.388H331.306C325.783 341.388 321.306 345.866 321.306 351.388C321.306 356.91 325.783 361.388 331.306 361.388H401.592C407.114 361.388 411.592 356.91 411.592 351.388C411.592 345.866 407.114 341.388 401.592 341.388Z" fill="#494949"/>
<path d="M401.592 301.225H331.306C325.783 301.225 321.306 305.702 321.306 311.225C321.306 316.747 325.783 321.225 331.306 321.225H401.592C407.114 321.225 411.592 316.747 411.592 311.225C411.592 305.702 407.114 301.225 401.592 301.225Z" fill="#494949"/>
<path d="M401.592 261.062H331.306C325.783 261.062 321.306 265.54 321.306 271.062C321.306 276.584 325.783 281.062 331.306 281.062H401.592C407.114 281.062 411.592 276.584 411.592 271.062C411.592 265.539 407.114 261.062 401.592 261.062Z" fill="#494949"/>
</g>
<defs>
<linearGradient id="paint0_linear_34_142" x1="256" y1="53.2578" x2="256" y2="213.336" gradientUnits="userSpaceOnUse">
<stop stop-color="#F3B572"/>
<stop offset="1" stop-color="#48A2FC"/>
</linearGradient>
<linearGradient id="paint1_linear_34_142" x1="256.001" y1="170.649" x2="256.001" y2="391.55" gradientUnits="userSpaceOnUse">
<stop stop-color="#F3B572"/>
<stop offset="1" stop-color="#48A2FC"/>
</linearGradient>
<clipPath id="clip0_34_142">
<rect width="512" height="512" fill="white"/>
</clipPath>
</defs>
</svg>
