<svg width="512" height="512" viewBox="0 0 512 512" fill="none" xmlns="http://www.w3.org/2000/svg">
<g clip-path="url(#clip0_34_164)">
<path fill-rule="evenodd" clip-rule="evenodd" d="M182.399 80.8223C182.399 121.47 215.337 154.436 255.985 154.436C296.633 154.436 329.599 121.47 329.599 80.8223C329.599 40.2023 296.633 7.23633 255.985 7.23633C215.337 7.23633 182.399 40.2023 182.399 80.8223V80.8223Z" fill="url(#paint0_linear_34_164)"/>
<path d="M510.706 301.905L421.615 144.217C418.906 139.422 412.834 137.721 408.029 140.407L357.829 168.469C355.507 169.767 353.798 171.936 353.079 174.497C352.361 177.059 352.693 179.801 354.002 182.116L360.157 193.01L345.515 197.245C339.255 199.066 335.46 200.055 333.365 200.055C333.358 200.055 333.352 200.055 333.345 200.055C331.91 200.051 330.334 199.498 325.833 197.79C323.779 197.011 321.224 196.041 318.084 194.944L297.859 187.852C277.01 180.577 244.693 195.482 244.352 195.645L214.095 210.137L152.264 192.209L157.998 182.059C159.306 179.744 159.638 177.002 158.921 174.442C158.203 171.881 156.495 169.713 154.175 168.414L103.974 140.323C99.1675 137.635 93.0925 139.338 90.3835 144.131L1.29352 301.821C-0.0144764 304.136 -0.346476 306.878 0.370524 309.438C1.08852 311.999 2.79652 314.167 5.11652 315.466L55.3175 343.557C56.8625 344.421 58.5385 344.832 60.1915 344.832C63.6815 344.832 67.0695 343.002 68.9075 339.749L75.5045 328.073L93.3915 342.161C90.3475 346.624 88.4185 351.799 87.8015 357.337C86.8065 366.258 89.3325 375.01 94.9055 381.97C100.432 388.893 108.329 393.265 117.159 394.306C116.23 403.149 118.752 411.81 124.273 418.706C129.994 425.873 138.079 430.058 146.542 431.052C145.62 439.889 148.146 448.545 153.667 455.442C159.193 462.365 167.09 466.737 175.92 467.778C174.991 476.621 177.513 485.281 183.034 492.178C189.639 500.453 199.399 504.762 209.253 504.762C216.599 504.762 223.998 502.366 230.179 497.433L245.94 484.818C249.283 482.142 252.023 478.908 254.088 475.288L267.353 485.903C273.52 490.827 280.909 493.218 288.251 493.218C298.1 493.217 307.863 488.915 314.478 480.654C317.963 476.301 320.172 471.335 321.174 466.206C324.714 467.423 328.401 468.022 332.075 468.022C341.92 468.021 351.676 463.717 358.272 455.454C363.802 448.545 366.329 439.884 365.409 431.044C374.244 430.006 382.147 425.633 387.667 418.717C393.391 411.567 395.694 402.768 394.806 394.303C403.629 393.258 411.52 388.888 417.033 381.98C422.614 375.009 425.14 366.256 424.146 357.336C423.529 351.801 421.602 346.629 418.562 342.17L436.462 328.061L443.096 339.803C444.934 343.057 448.322 344.886 451.811 344.886C453.462 344.886 455.138 344.476 456.682 343.613L506.882 315.551C509.203 314.253 510.912 312.083 511.631 309.523C512.347 306.963 512.015 304.221 510.706 301.905V301.905ZM56.3925 321.24L23.6455 302.916L102.899 162.641L135.646 180.965L56.3925 321.24ZM110.526 369.483C108.287 366.686 107.275 363.16 107.677 359.554C108.078 355.95 109.842 352.733 112.651 350.491L144.826 324.751C150.638 320.101 159.159 321.054 163.821 326.878C166.06 329.676 167.072 333.203 166.67 336.81C166.268 340.414 164.504 343.63 161.704 345.866C161.689 345.878 161.677 345.891 161.663 345.903L129.524 371.611C129.523 371.612 129.522 371.613 129.521 371.614C126.723 373.853 123.194 374.864 119.591 374.463C115.987 374.059 112.771 372.295 110.526 369.483V369.483ZM139.893 406.219C137.659 403.429 136.65 399.906 137.053 396.3C137.456 392.691 139.22 389.468 142.018 387.228L190.595 348.372C196.418 343.723 204.944 344.674 209.592 350.479C214.247 356.31 213.308 364.836 207.504 369.483L191.18 382.54C191.15 382.564 191.119 382.585 191.089 382.609C191.074 382.621 191.061 382.635 191.047 382.647L158.928 408.339C153.086 413.003 144.55 412.056 139.893 406.219V406.219ZM169.287 442.955C167.048 440.158 166.036 436.632 166.438 433.026C166.839 429.422 168.603 426.206 171.403 423.97C171.406 423.968 171.409 423.966 171.412 423.963L203.645 398.18C209.454 393.581 217.935 394.543 222.583 400.349C224.822 403.147 225.834 406.673 225.432 410.28C225.031 413.884 223.266 417.1 220.457 419.343L204.2 432.349C204.151 432.387 204.101 432.422 204.053 432.461C204.027 432.482 204.005 432.505 203.979 432.527L188.282 445.084C185.485 447.323 181.96 448.335 178.352 447.933C174.748 447.531 171.532 445.768 169.287 442.955V442.955ZM238.405 460.131C238.002 463.742 236.238 466.965 233.439 469.205L217.689 481.811C211.849 486.475 203.314 485.529 198.654 479.691C196.42 476.901 195.412 473.378 195.815 469.772C196.219 466.161 197.982 462.938 200.782 460.697L216.601 448.041C222.431 443.445 230.92 444.408 235.566 450.211C237.8 453.002 238.808 456.526 238.405 460.131V460.131ZM401.408 369.494C399.173 372.295 395.956 374.058 392.352 374.46C388.741 374.861 385.218 373.851 382.422 371.611C382.42 371.61 382.419 371.609 382.417 371.607L355.773 350.292C351.461 346.841 345.167 347.541 341.717 351.854C338.267 356.166 338.966 362.459 343.279 365.91L369.922 387.224C375.747 391.887 376.7 400.408 372.04 406.23C369.805 409.031 366.589 410.794 362.984 411.196C359.388 411.597 355.851 410.587 353.049 408.344L324.165 385.241C319.851 381.791 313.559 382.491 310.109 386.804C306.66 391.116 307.36 397.409 311.673 400.86L340.553 423.96C343.347 426.197 345.107 429.416 345.506 433.023C345.904 436.631 344.892 440.158 342.645 442.964C338 448.782 329.479 449.729 323.655 445.079L294.771 421.976C290.457 418.526 284.166 419.226 280.715 423.539C277.266 427.851 277.965 434.144 282.278 437.595L296.723 449.149L296.73 449.158C302.555 453.821 303.509 462.343 298.858 468.153C294.195 473.978 285.656 474.929 279.834 470.28L257.993 452.802C257.042 447.325 254.734 442.154 251.176 437.711C247.863 433.572 243.757 430.433 239.249 428.324C242.559 423.715 244.658 418.306 245.306 412.493C246.3 403.573 243.774 394.821 238.193 387.848C234.88 383.711 230.779 380.572 226.276 378.463C234.788 366.573 234.784 349.982 225.21 337.988C215.633 326.025 199.456 322.378 185.977 328.067C184.892 323.112 182.685 318.44 179.432 314.375C167.876 299.941 146.744 297.592 132.327 309.132L108.241 328.4L85.4535 310.452L142.151 210.1L188.756 223.613C171.187 236.553 169.306 252.642 173.901 263.753C181.341 281.744 208.036 294.28 242.849 282.072C250.26 279.474 256.497 276.873 261.999 274.577C281.926 266.266 288.638 263.465 308.257 277.525C319.398 285.528 335.164 298.532 349.074 310.005C355.676 315.45 361.912 320.594 367.003 324.663L399.296 350.492C402.098 352.727 403.861 355.944 404.263 359.549C404.668 363.159 403.656 366.686 401.408 369.494V369.494ZM403.709 328.413L379.496 309.047C374.523 305.072 368.345 299.977 361.805 294.581C360.064 293.145 358.295 291.686 356.508 290.215C364.456 289.234 372.168 287.166 378.933 284.379C384.039 282.275 386.474 276.431 384.371 271.324C382.268 266.219 376.426 263.781 371.316 265.886C357.279 271.669 336.61 273.296 325.236 265.201C323.389 263.809 321.606 262.489 319.921 261.279C291.233 240.719 275.741 247.179 254.304 256.123C249.054 258.313 243.102 260.796 236.238 263.202C211.857 271.748 195.659 264.024 192.388 256.113C189.58 249.323 196.18 240.901 209.199 234.66L252.972 213.694C261.811 209.485 282.168 203.56 291.257 206.731L311.478 213.822C314.377 214.835 316.694 215.715 318.739 216.49C331.289 221.253 334.616 221.25 351.089 216.454L370.27 210.907L426.507 310.444L403.709 328.413ZM455.609 321.301L376.355 181.026L409.099 162.722L488.352 302.997L455.609 321.301Z" fill="#494949"/>
<path d="M221.765 93.7784L241.012 110.105C242.826 111.643 245.12 112.479 247.481 112.479C247.763 112.479 248.046 112.467 248.329 112.443C250.982 112.217 253.435 110.944 255.145 108.903L291.428 65.6194C294.976 61.3874 294.42 55.0794 290.188 51.5314C285.957 47.9854 279.65 48.5374 276.1 52.7714L246.28 88.3464L234.704 78.5264C230.491 74.9534 224.182 75.4714 220.609 79.6834C217.036 83.8944 217.554 90.2044 221.765 93.7784V93.7784Z" fill="#494949"/>
</g>
<defs>
<linearGradient id="paint0_linear_34_164" x1="255.999" y1="7.23633" x2="255.999" y2="154.436" gradientUnits="userSpaceOnUse">
<stop stop-color="#F3B572"/>
<stop offset="1" stop-color="#48A2FC"/>
</linearGradient>
<clipPath id="clip0_34_164">
<rect width="512" height="512" fill="white"/>
</clipPath>
</defs>
</svg>
