<svg width="148" height="148" viewBox="0 0 148 148" fill="none" xmlns="http://www.w3.org/2000/svg">
<path fill-rule="evenodd" clip-rule="evenodd" d="M0 73.586C0 114.234 32.938 147.2 73.586 147.2C114.234 147.2 147.2 114.234 147.2 73.586C147.2 32.966 114.234 0 73.586 0C32.938 0 0 32.966 0 73.586Z" fill="url(#paint0_linear_34_171)"/>
<path d="M39.5307 86.5831L58.7777 102.91C60.5917 104.448 62.8857 105.284 65.2467 105.284C65.5287 105.284 65.8117 105.272 66.0947 105.248C68.7477 105.022 71.2007 103.749 72.9107 101.708L109.194 58.4241C112.742 54.1921 112.186 47.8841 107.954 44.3361C103.723 40.7901 97.4157 41.3421 93.8657 45.5761L64.0457 81.1511L52.4697 71.3311C48.2567 67.7581 41.9477 68.2761 38.3747 72.4881C34.8017 76.6991 35.3197 83.0091 39.5307 86.5831Z" fill="white"/>
<defs>
<linearGradient id="paint0_linear_34_171" x1="73.6" y1="0" x2="73.6" y2="147.2" gradientUnits="userSpaceOnUse">
<stop stop-color="#462929"/>
<stop offset="1" stop-color="#00316B"/>
</linearGradient>
</defs>
</svg>
