<svg width="512" height="512" viewBox="0 0 512 512" fill="none" xmlns="http://www.w3.org/2000/svg">
<path d="M128.457 232.736H214.743V329.023H128.457V232.736Z" fill="url(#paint0_linear_32_416)"/>
<path d="M383.543 459.148H257.255V362.861H383.543V459.148Z" fill="url(#paint1_linear_32_416)"/>
<path d="M411.703 0.278L100.356 0H100.325C91.3346 0 82.8806 3.499 76.5196 9.854C70.1506 16.217 66.6436 24.679 66.6436 33.682V478.317C66.6436 496.889 81.7536 512 100.327 512H411.674C430.246 512 445.356 496.89 445.356 478.317V33.961C445.356 15.405 430.259 0.295 411.703 0.278V0.278ZM425.356 478.317C425.356 485.862 419.218 492 411.674 492H100.327C92.7826 492 86.6436 485.862 86.6436 478.317V33.683C86.6436 30.026 88.0686 26.588 90.6556 24.003C93.2396 21.421 96.6736 20 100.326 20H100.339L411.686 20.278C419.223 20.285 425.356 26.423 425.356 33.961V478.317Z" fill="white" fill-opacity="0.76"/>
<path d="M383.544 47.5229H128.457C122.934 47.5229 118.457 52.0009 118.457 57.5229V174.592C118.457 180.114 122.934 184.592 128.457 184.592H383.544C389.066 184.592 393.544 180.114 393.544 174.592V57.5229C393.544 52.0009 389.067 47.5229 383.544 47.5229V47.5229ZM373.544 158.515L173.413 67.523H373.544V158.515ZM138.457 73.6009L338.59 164.593H138.457V73.6009Z" fill="white" fill-opacity="0.76"/>
<path d="M383.544 245.561H261.469C255.946 245.561 251.469 250.039 251.469 255.561C251.469 261.083 255.946 265.561 261.469 265.561H383.544C389.066 265.561 393.544 261.083 393.544 255.561C393.544 250.039 389.067 245.561 383.544 245.561V245.561Z" fill="white" fill-opacity="0.76"/>
<path d="M383.544 296.198H261.469C255.946 296.198 251.469 300.676 251.469 306.198C251.469 311.72 255.946 316.198 261.469 316.198H383.544C389.066 316.198 393.544 311.72 393.544 306.198C393.544 300.676 389.067 296.198 383.544 296.198Z" fill="white" fill-opacity="0.76"/>
<path d="M210.53 426.323H128.457C122.934 426.323 118.457 430.801 118.457 436.323C118.457 441.845 122.934 446.323 128.457 446.323H210.53C216.053 446.323 220.53 441.845 220.53 436.323C220.53 430.801 216.053 426.323 210.53 426.323V426.323Z" fill="white" fill-opacity="0.76"/>
<path d="M210.53 375.687H128.457C122.934 375.687 118.457 380.165 118.457 385.687C118.457 391.209 122.934 395.687 128.457 395.687H210.53C216.053 395.687 220.53 391.209 220.53 385.687C220.53 380.165 216.053 375.687 210.53 375.687V375.687Z" fill="white" fill-opacity="0.76"/>
<defs>
<linearGradient id="paint0_linear_32_416" x1="171.6" y1="232.736" x2="171.6" y2="329.023" gradientUnits="userSpaceOnUse">
<stop stop-color="#462929"/>
<stop offset="1" stop-color="#00316B"/>
</linearGradient>
<linearGradient id="paint1_linear_32_416" x1="320.399" y1="459.148" x2="320.399" y2="362.861" gradientUnits="userSpaceOnUse">
<stop stop-color="#462929"/>
<stop offset="1" stop-color="#00316B"/>
</linearGradient>
</defs>
</svg>
