<?xml version="1.0" encoding="UTF-8"?>
<svg id="Layer_1" data-name="Layer 1" xmlns="http://www.w3.org/2000/svg" xmlns:xlink="http://www.w3.org/1999/xlink" viewBox="0 0 1280 1280">
  <defs>
    <style>
      .cls-1 {
        fill: url(#linear-gradient);
      }

      .cls-2 {
        fill: url(#linear-gradient-3);
      }

      .cls-3 {
        fill: url(#linear-gradient-2);
      }

      .cls-4 {
        fill: #fffeff;
      }

      .cls-4, .cls-5 {
        opacity: .6;
      }

      .cls-5 {
        fill: #fff;
      }
    </style>
    <linearGradient id="linear-gradient" x1="1174" y1="408.26" x2="708.42" y2="408.26" gradientUnits="userSpaceOnUse">
      <stop offset="0" stop-color="#609bd3"/>
      <stop offset="1" stop-color="#f3b572"/>
    </linearGradient>
    <linearGradient id="linear-gradient-2" x1="371.79" y1="873.35" x2="64.56" y2="873.35" gradientUnits="userSpaceOnUse">
      <stop offset="0" stop-color="#f3b572"/>
      <stop offset=".79" stop-color="#779ec6"/>
    </linearGradient>
    <linearGradient id="linear-gradient-3" x1="162.87" y1="638.77" x2="1096.25" y2="638.77" gradientUnits="userSpaceOnUse">
      <stop offset="0" stop-color="#f3b572"/>
      <stop offset=".4" stop-color="#609bd3"/>
      <stop offset=".5" stop-color="#609bd3"/>
      <stop offset=".6" stop-color="#609bd3"/>
      <stop offset="1" stop-color="#f3b572"/>
    </linearGradient>
  </defs>
  <path class="cls-1" d="M1174,408.25c0,171.77-139.26,311.03-311.03,311.03-56.25,0-109.05-14.95-154.56-41.1l1.14-244.36c11.96,72.28,73.75,127.75,148.9,129.88,1.49,.04,3.01,.06,4.52,.06s3.03-.02,4.52-.06c126.75-2.38,228.75-105.89,228.75-233.21s-228.27-234.82-233.64-232.65c1.87-.75,4.39-.6,6.41-.55,168.99,3.21,304.99,141.21,304.99,310.96Z"/>
  <path class="cls-3" d="M392.71,713.82s-.29,0-.43,0c-126.57,2.01-228.81,104.95-229.39,232.12-.02,2.72,.02,5.43,.12,8.13,.02,1.66,.1,3.3,.19,4.96,.19,3.98,.5,7.94,.89,11.86,.19,1.93,.41,3.86,.66,5.76,.27,2.22,.58,4.42,.93,6.61,.25,1.66,.52,3.3,.83,4.93,.39,2.3,.83,4.58,1.33,6.84,.29,1.47,.62,2.92,.95,4.38,.06,.31,.12,.6,.21,.89,.35,1.58,.75,3.13,1.14,4.69,.08,.31,.17,.64,.25,.95,.37,1.47,.77,2.92,1.18,4.38,.68,2.43,1.39,4.83,2.16,7.22,.41,1.33,.85,2.63,1.29,3.94,.5,1.47,1,2.92,1.53,4.38,.52,1.49,1.08,2.99,1.66,4.46,.1,.35,.23,.68,.37,1.02,.5,1.31,1.02,2.61,1.56,3.9,.17,.46,.35,.91,.56,1.35,.56,1.39,1.14,2.74,1.76,4.11,.12,.31,.25,.62,.39,.93,.46,1.04,.93,2.07,1.43,3.11,.39,.87,.79,1.74,1.2,2.61,.23,.5,.48,1.02,.75,1.51,.62,1.31,1.26,2.57,1.91,3.86l.37,.75c.68,1.35,1.39,2.67,2.11,3.98,.23,.48,.5,.97,.79,1.45,.64,1.2,1.31,2.38,1.97,3.55,.17,.31,.35,.62,.54,.93,.77,1.33,1.53,2.65,2.32,3.96,.23,.37,.46,.77,.71,1.14,.66,1.08,1.33,2.16,2.01,3.23,.39,.64,.81,1.29,1.24,1.93,.56,.89,1.14,1.76,1.72,2.63,.44,.66,.87,1.31,1.33,1.95,.71,1.06,1.43,2.11,2.18,3.15,.19,.31,.39,.6,.62,.89,.79,1.12,1.58,2.2,2.41,3.3,.35,.52,.75,1.04,1.14,1.53,.71,.95,1.41,1.89,2.14,2.82,.64,.83,1.31,1.66,1.99,2.49,.27,.39,.58,.77,.91,1.16,.71,.87,1.41,1.74,2.16,2.61,.83,1.04,1.7,2.05,2.59,3.07,0,.04,.04,.08,.08,.1,1.1,1.29,2.24,2.57,3.4,3.86,.19,.23,.39,.46,.58,.66,1.12,1.22,2.26,2.45,3.4,3.65,.02,.02,.04,.06,.1,.1,1.14,1.2,2.28,2.41,3.46,3.57,.27,.29,.56,.58,.85,.87,.85,.85,1.7,1.7,2.57,2.51,.64,.64,1.29,1.26,1.95,1.89,.62,.58,1.24,1.16,1.87,1.74,.75,.71,1.51,1.41,2.3,2.09,1.1,1.02,2.22,1.99,3.34,2.97,1.29,1.12,2.59,2.22,3.9,3.32,.06,.06,.12,.1,.19,.15,.97,.83,1.97,1.62,2.97,2.43,.79,.64,1.6,1.26,2.41,1.89,.5,.41,1,.81,1.51,1.18,1.02,.79,2.05,1.56,3.09,2.34,1.16,.87,2.36,1.74,3.57,2.59,1.18,.83,2.34,1.66,3.55,2.47,.41,.29,.85,.58,1.26,.85,.93,.64,1.89,1.29,2.84,1.89,.64,.46,1.31,.87,1.95,1.26,1,.66,2.01,1.29,3.03,1.91,.46,.29,.91,.58,1.37,.85,1.47,.91,2.97,1.78,4.48,2.65,1.62,.95,3.26,1.87,4.89,2.76,1.62,.89,3.23,1.76,4.87,2.59,.06,.04,.1,.08,.17,.08,1.33,.71,2.67,1.39,4.04,2.03,.48,.25,.93,.48,1.41,.7,1.14,.56,2.3,1.1,3.46,1.64,.5,.23,.97,.46,1.47,.66,1.49,.68,2.99,1.35,4.5,1.99,.17,.08,.33,.17,.52,.23,1.53,.66,3.09,1.31,4.64,1.93,.19,.08,.35,.15,.54,.23,1.58,.62,3.17,1.22,4.79,1.82,.19,.08,.37,.15,.58,.23,1.72,.62,3.46,1.24,5.23,1.85,1.66,.58,3.32,1.12,5,1.64,.19,.08,.39,.15,.58,.19,1.76,.58,3.55,1.1,5.33,1.62,1.04,.31,2.07,.6,3.13,.87,1.06,.29,2.12,.58,3.17,.85,1.82,.48,3.67,.93,5.52,1.35,3.5,.83,7.07,1.56,10.66,2.22,1.26,.23,2.51,.46,3.77,.64,.79,.15,1.6,.27,2.41,.39,3.21,.5,6.47,.93,9.72,1.29,6.32,.73,12.75,1.2,19.22,1.39-168.97-4-304.33-142.62-303.54-312.37,.78-166.3,131.95-293.38,296.18-301.08,5.4-.25,10.83-.27,10.83-.27l.22,147.33Z"/>
  <path class="cls-2" d="M1096.25,330.49c0,127.31-102,230.82-228.75,233.21,6.26-.19,12.44-.73,18.5-1.62,76.57-11.36,134.96-78.56,132.41-158.87-.04-1.12-.08-2.24-.15-3.34-4.25-79.73-69.46-144.17-149.6-147.03-79.17-2.82-145.75,53.58-158.85,128.37l-1.2,10.1c-1.31,10.78-1.35,21.67-.17,32.45l1.12,10.06-.15,29.22-.21,45.47-.79,169.67-.89,192.57c-.25,54.66-14.6,105.91-39.56,150.43-52.56,93.76-152.3,157.46-266.9,159.1-1.99,.02-4,.04-6.01,.04-1.02-.02-2.01-.02-3.01-.04-1,0-1.99-.04-3.01-.06h-.02c-6.47-.19-12.9-.66-19.22-1.39-3.26-.35-6.51-.79-9.72-1.29-.81-.12-1.62-.25-2.41-.39-1.26-.19-2.51-.41-3.77-.64-3.59-.66-7.15-1.39-10.66-2.22-1.87-.41-3.69-.87-5.52-1.35-1.08-.27-2.14-.54-3.17-.85-1.06-.27-2.09-.56-3.13-.87-1.78-.52-3.57-1.04-5.33-1.62-.19-.04-.39-.1-.58-.19-1.68-.52-3.34-1.06-5-1.64-1.76-.6-3.5-1.22-5.23-1.85-.21-.08-.39-.15-.58-.23-1.62-.6-3.21-1.2-4.79-1.82-.19-.08-.35-.15-.54-.23-1.56-.62-3.11-1.26-4.64-1.93-.19-.06-.35-.15-.52-.23-1.51-.64-3.01-1.31-4.5-1.99-.5-.21-.97-.44-1.47-.66-1.16-.54-2.32-1.08-3.46-1.64-.48-.23-.93-.46-1.41-.7-1.37-.64-2.72-1.33-4.04-2.03-.06,0-.1-.04-.17-.08-1.64-.83-3.26-1.7-4.87-2.59-1.64-.89-3.28-1.8-4.89-2.76-1.51-.87-3.01-1.74-4.48-2.65-.46-.27-.91-.56-1.37-.85-1.02-.62-2.03-1.24-3.03-1.91-.64-.39-1.31-.81-1.95-1.26-.95-.6-1.91-1.24-2.84-1.89-.41-.27-.85-.56-1.26-.85-1.2-.81-2.36-1.64-3.55-2.47-1.2-.85-2.41-1.72-3.57-2.59-1.04-.77-2.07-1.56-3.09-2.34-.52-.37-1.02-.77-1.51-1.18-.81-.6-1.62-1.24-2.41-1.89-1-.81-1.99-1.6-2.97-2.43-.06-.04-.12-.08-.19-.15-1.31-1.1-2.61-2.2-3.9-3.32-1.12-.97-2.24-1.95-3.34-2.97-.77-.68-1.53-1.37-2.3-2.09-.62-.58-1.24-1.16-1.87-1.74-.66-.62-1.31-1.24-1.95-1.89-.87-.81-1.72-1.66-2.57-2.51-.29-.29-.58-.58-.85-.87-1.18-1.16-2.32-2.36-3.46-3.57-.06-.04-.08-.08-.1-.1-1.14-1.2-2.28-2.43-3.4-3.65-.19-.21-.39-.44-.58-.66-1.16-1.29-2.3-2.57-3.4-3.86-.04-.02-.08-.06-.08-.1-.89-1.02-1.76-2.03-2.59-3.07-.75-.87-1.47-1.74-2.16-2.61-.33-.39-.64-.77-.91-1.16-.68-.83-1.35-1.66-1.99-2.49-.73-.93-1.43-1.87-2.14-2.82-.39-.5-.79-1.02-1.14-1.53-.83-1.1-1.62-2.18-2.41-3.3-.23-.29-.44-.58-.62-.89-.75-1.04-1.47-2.09-2.18-3.15-.46-.64-.89-1.29-1.33-1.95-.58-.87-1.16-1.74-1.72-2.63-.44-.64-.85-1.29-1.24-1.93-.68-1.08-1.35-2.16-2.01-3.23-.25-.37-.48-.77-.71-1.14-.79-1.31-1.56-2.63-2.32-3.96-.19-.31-.37-.62-.54-.93-.66-1.16-1.33-2.34-1.97-3.55-.29-.48-.56-.97-.79-1.45-.73-1.31-1.43-2.63-2.11-3.98l-.37-.75c-.64-1.29-1.29-2.55-1.91-3.86-.27-.5-.52-1.02-.75-1.51-.41-.87-.81-1.74-1.2-2.61-.5-1.04-.97-2.07-1.43-3.11-.15-.31-.27-.62-.39-.93-.62-1.37-1.2-2.72-1.76-4.11-.21-.44-.39-.89-.56-1.35-.48-1.33-1.04-2.59-1.56-3.9-.06-.1-.1-.23-.15-.33-.08-.23-.17-.46-.23-.68-.58-1.47-1.14-2.97-1.66-4.46-.54-1.45-1.04-2.9-1.53-4.38-.44-1.31-.87-2.61-1.29-3.94-.77-2.38-1.47-4.79-2.16-7.22-.41-1.45-.81-2.9-1.18-4.38-.08-.31-.17-.64-.25-.95-.39-1.56-.79-3.11-1.14-4.69-.08-.29-.15-.58-.21-.89-.33-1.45-.66-2.9-.95-4.38-.5-2.26-.93-4.54-1.33-6.84-.31-1.64-.58-3.28-.83-4.93-.35-2.2-.66-4.4-.93-6.61-.25-1.91-.48-3.84-.66-5.76-.39-3.92-.7-7.88-.89-11.86-.08-1.66-.17-3.3-.19-4.96-.1-2.7-.15-5.41-.12-8.13,.58-127.31,103.05-230.35,229.83-232.13-2.36,.06-4.71,.17-7.05,.33-80.51,5.52-144.3,72.43-144.67,154.41-.02,4.56,.15,9.1,.54,13.56,6.49,79.56,72.95,142.28,154.25,142.68,84.54,.39,153.67-66.77,156.18-150.79V408.25c0-54.66,14.1-106,38.86-150.62,52.13-94.01,151.57-158.17,266.16-160.34,1.99-.04,4-.06,6.01-.06,128.83,0,233.27,104.44,233.27,233.27Z"/>
  <path class="cls-5" d="M1097.04,332.02c-3,118.75-79.3,212.72-211.05,230.06,76.57-11.36,134.96-78.56,132.41-158.87-.04-1.12-.08-2.24-.15-3.34,16.42-29.67,25.77-63.8,25.77-100.13,0-97.12-66.85-178.63-157.05-201.03,114.56,8.86,213.09,113.13,210.06,233.3Z"/>
  <path class="cls-4" d="M414.22,1173.79c17.25,.88,34.76,2.07,50.88-1.12-41.87,12.73-89.49,11.57-137.61-2.38-78.14-22.66-138.15-86.14-157.2-165.23-36.17-150.12,72.93-284.41,215.37-290.9-80.51,5.52-144.3,72.43-144.67,154.41-.02,4.56,.15,9.1,.54,13.56-14.11,29.22-21.47,62.33-19.99,97.29,4.42,104.33,88.38,189.05,192.68,194.37Z"/>
</svg>