<svg width="512" height="512" viewBox="0 0 512 512" fill="none" xmlns="http://www.w3.org/2000/svg">
<path fill-rule="evenodd" clip-rule="evenodd" d="M95.5275 188.748L141.584 145.364H229.972L255.986 188.748L281.999 145.364H370.388L416.473 188.748L432.451 145.364H476.034V4.26562H35.9385V145.364H79.5495L95.5275 188.748Z" fill="url(#paint0_linear_34_195)"/>
<path d="M110.339 61.2973H299.541C305.069 61.2973 309.55 56.8163 309.55 51.2883C309.55 45.7603 305.069 41.2793 299.541 41.2793H110.339C104.811 41.2793 100.33 45.7603 100.33 51.2883C100.33 56.8163 104.811 61.2973 110.339 61.2973Z" fill="#494949"/>
<path d="M349.691 61.2973H401.661C407.189 61.2973 411.67 56.8163 411.67 51.2883C411.67 45.7603 407.189 41.2793 401.661 41.2793H349.691C344.163 41.2793 339.682 45.7603 339.682 51.2883C339.682 56.8163 344.163 61.2973 349.691 61.2973V61.2973Z" fill="#494949"/>
<path d="M401.661 88.3301H212.431C206.903 88.3301 202.422 92.8111 202.422 98.3391C202.422 103.867 206.903 108.348 212.431 108.348H401.661C407.189 108.348 411.67 103.867 411.67 98.3391C411.67 92.8111 407.189 88.3301 401.661 88.3301V88.3301Z" fill="#494949"/>
<path d="M110.339 108.349H162.309C167.837 108.349 172.318 103.868 172.318 98.3401C172.318 92.8121 167.837 88.3311 162.309 88.3311H110.339C104.811 88.3311 100.33 92.8121 100.33 98.3401C100.33 103.868 104.811 108.349 110.339 108.349V108.349Z" fill="#494949"/>
<path d="M494.045 332.291C505.141 320.959 512 305.465 512 288.394C512 253.748 483.814 225.562 449.168 225.562C414.538 225.562 386.364 253.748 386.364 288.394C386.364 305.871 393.546 321.696 405.105 333.093C401.345 336.309 397.662 340.694 393.912 346.838L381.77 366.745H338.626C332.105 350.294 320.767 336.107 306.22 326.074C314.125 315.57 318.818 302.52 318.818 288.394C318.818 253.748 290.632 225.562 255.986 225.562C221.356 225.562 193.182 253.748 193.182 288.394C193.182 302.521 197.873 315.571 205.775 326.075C191.209 336.115 179.871 350.301 173.367 366.745H130.207L118.086 346.834C114.332 340.684 110.644 336.298 106.878 333.081C118.43 321.685 125.607 305.864 125.607 288.394C125.607 253.748 97.433 225.562 62.803 225.562C28.174 225.562 0 253.748 0 288.394C0 305.464 6.855 320.957 17.945 332.288C6.845 341.757 0 358.583 0 374.225V497.724C0 503.252 4.481 507.734 10.009 507.734H501.99C507.518 507.734 511.999 503.252 511.999 497.724V374.225C512 358.584 505.151 341.76 494.045 332.291ZM449.168 245.581C472.775 245.581 491.982 264.787 491.982 288.394C491.982 311.986 472.776 331.179 449.168 331.179C425.576 331.179 406.383 311.985 406.383 288.394C406.382 264.786 425.576 245.581 449.168 245.581ZM293.8 411.579H218.175C219.767 407.75 220.65 403.555 220.65 399.157C220.65 383.619 209.657 370.605 195.042 367.469C200.898 356.311 209.764 346.871 220.667 340.294C230.738 347.17 242.9 351.197 255.987 351.197C269.083 351.197 281.251 347.168 291.328 340.29C302.216 346.86 311.081 356.303 316.948 367.471C302.323 370.609 291.324 383.621 291.324 399.157C291.322 403.557 292.206 407.751 293.8 411.579V411.579ZM255.986 245.581C279.593 245.581 298.8 264.787 298.8 288.394C298.8 311.986 279.594 331.179 255.986 331.179C232.394 331.179 213.201 311.985 213.201 288.394C213.2 264.786 232.394 245.581 255.986 245.581ZM62.804 245.581C86.396 245.581 105.589 264.787 105.589 288.394C105.589 311.986 86.396 331.179 62.804 331.179C39.212 331.179 20.019 311.985 20.019 288.394C20.019 264.786 39.212 245.581 62.804 245.581ZM20.019 374.225C20.019 359.841 28.245 346.925 35.523 344.956C43.778 348.954 53.033 351.199 62.804 351.199C72.193 351.199 81.099 349.113 89.105 345.404C92.536 346.721 96.164 349.343 100.992 357.253L116.031 381.959C117.848 384.943 121.088 386.765 124.581 386.765H188.236C195.07 386.765 200.629 392.324 200.629 399.157C200.629 406.007 195.069 411.579 188.236 411.579H115.2C109.672 411.579 105.191 416.06 105.191 421.588V487.714H20.019V374.225ZM125.21 431.598H386.79V487.716H125.21V431.598ZM491.981 487.716H406.808V421.589C406.808 416.061 402.327 411.58 396.799 411.58H323.762C316.913 411.58 311.34 406.007 311.34 399.158C311.34 392.325 316.913 386.765 323.762 386.765H387.389C390.879 386.765 394.117 384.947 395.935 381.968L411.001 357.265C415.828 349.356 419.45 346.729 422.873 345.408C430.878 349.115 439.782 351.2 449.168 351.2C458.942 351.2 468.2 348.956 476.458 344.959C483.747 346.934 491.981 359.846 491.981 374.226V487.716Z" fill="#494949"/>
<defs>
<linearGradient id="paint0_linear_34_195" x1="255.986" y1="4.26562" x2="255.986" y2="188.748" gradientUnits="userSpaceOnUse">
<stop stop-color="#F3B572"/>
<stop offset="1" stop-color="#48A2FC"/>
</linearGradient>
</defs>
</svg>
