<svg width="512" height="512" viewBox="0 0 512 512" fill="none" xmlns="http://www.w3.org/2000/svg">
<path fill-rule="evenodd" clip-rule="evenodd" d="M95.5275 188.748L141.584 145.364H229.972L255.986 188.748L281.999 145.364H370.388L416.473 188.748L432.451 145.364H476.034V4.26611H35.9385V145.364H79.5495L95.5275 188.748Z" fill="url(#paint0_linear_30_293)"/>
<path d="M110.339 61.298H299.541C305.069 61.298 309.55 56.817 309.55 51.289C309.55 45.761 305.069 41.28 299.541 41.28H110.339C104.811 41.28 100.33 45.761 100.33 51.289C100.33 56.817 104.811 61.298 110.339 61.298Z" fill="white" fill-opacity="0.76"/>
<path d="M349.691 61.298H401.661C407.189 61.298 411.67 56.817 411.67 51.289C411.67 45.761 407.189 41.28 401.661 41.28H349.691C344.163 41.28 339.682 45.761 339.682 51.289C339.682 56.817 344.163 61.298 349.691 61.298V61.298Z" fill="white" fill-opacity="0.76"/>
<path d="M401.661 88.3311H212.431C206.903 88.3311 202.422 92.812 202.422 98.34C202.422 103.868 206.903 108.349 212.431 108.349H401.661C407.189 108.349 411.67 103.868 411.67 98.34C411.67 92.812 407.189 88.3311 401.661 88.3311V88.3311Z" fill="white" fill-opacity="0.76"/>
<path d="M110.339 108.35H162.309C167.837 108.35 172.318 103.869 172.318 98.341C172.318 92.813 167.837 88.332 162.309 88.332H110.339C104.811 88.332 100.33 92.813 100.33 98.341C100.33 103.869 104.811 108.35 110.339 108.35V108.35Z" fill="white" fill-opacity="0.76"/>
<path d="M494.045 332.292C505.141 320.96 512 305.466 512 288.395C512 253.749 483.814 225.563 449.168 225.563C414.538 225.563 386.364 253.749 386.364 288.395C386.364 305.872 393.546 321.697 405.105 333.094C401.345 336.31 397.662 340.694 393.912 346.838L381.77 366.746H338.626C332.105 350.295 320.767 336.107 306.22 326.074C314.125 315.57 318.818 302.521 318.818 288.395C318.818 253.749 290.632 225.563 255.986 225.563C221.356 225.563 193.182 253.749 193.182 288.395C193.182 302.522 197.873 315.571 205.775 326.075C191.209 336.115 179.871 350.302 173.367 366.746H130.207L118.086 346.835C114.332 340.685 110.644 336.299 106.878 333.082C118.43 321.686 125.607 305.865 125.607 288.395C125.607 253.749 97.433 225.563 62.803 225.563C28.174 225.563 0 253.749 0 288.395C0 305.465 6.855 320.958 17.945 332.289C6.845 341.758 0 358.583 0 374.225V497.725C0 503.253 4.481 507.734 10.009 507.734H501.99C507.518 507.734 511.999 503.253 511.999 497.725V374.225C512 358.584 505.151 341.761 494.045 332.292ZM449.168 245.582C472.775 245.582 491.982 264.788 491.982 288.395C491.982 311.987 472.776 331.18 449.168 331.18C425.576 331.18 406.383 311.986 406.383 288.395C406.382 264.787 425.576 245.582 449.168 245.582ZM293.8 411.58H218.175C219.767 407.751 220.65 403.556 220.65 399.158C220.65 383.62 209.657 370.606 195.042 367.47C200.898 356.312 209.764 346.871 220.667 340.294C230.738 347.17 242.9 351.198 255.987 351.198C269.083 351.198 281.251 347.168 291.328 340.29C302.216 346.86 311.081 356.303 316.948 367.471C302.323 370.609 291.324 383.621 291.324 399.157C291.322 403.557 292.206 407.752 293.8 411.58V411.58ZM255.986 245.582C279.593 245.582 298.8 264.788 298.8 288.395C298.8 311.987 279.594 331.18 255.986 331.18C232.394 331.18 213.201 311.986 213.201 288.395C213.2 264.787 232.394 245.582 255.986 245.582ZM62.804 245.582C86.396 245.582 105.589 264.788 105.589 288.395C105.589 311.987 86.396 331.18 62.804 331.18C39.212 331.18 20.019 311.986 20.019 288.395C20.019 264.787 39.212 245.582 62.804 245.582ZM20.019 374.225C20.019 359.841 28.245 346.926 35.523 344.957C43.778 348.955 53.033 351.199 62.804 351.199C72.193 351.199 81.099 349.114 89.105 345.405C92.536 346.722 96.164 349.344 100.992 357.254L116.031 381.96C117.848 384.944 121.088 386.765 124.581 386.765H188.236C195.07 386.765 200.629 392.325 200.629 399.158C200.629 406.008 195.069 411.58 188.236 411.58H115.2C109.672 411.58 105.191 416.061 105.191 421.589V487.715H20.019V374.225ZM125.21 431.599H386.79V487.716H125.21V431.599ZM491.981 487.716H406.808V421.59C406.808 416.062 402.327 411.581 396.799 411.581H323.762C316.913 411.581 311.34 406.008 311.34 399.159C311.34 392.326 316.913 386.766 323.762 386.766H387.389C390.879 386.766 394.117 384.948 395.935 381.969L411.001 357.266C415.828 349.357 419.45 346.73 422.873 345.409C430.878 349.116 439.782 351.2 449.168 351.2C458.942 351.2 468.2 348.956 476.458 344.959C483.747 346.934 491.981 359.846 491.981 374.226V487.716Z" fill="white" fill-opacity="0.76"/>
<defs>
<linearGradient id="paint0_linear_30_293" x1="255.986" y1="4.26611" x2="255.986" y2="188.748" gradientUnits="userSpaceOnUse">
<stop stop-color="#462929"/>
<stop offset="1" stop-color="#00316B"/>
</linearGradient>
</defs>
</svg>
