<svg width="512" height="512" viewBox="0 0 512 512" fill="none" xmlns="http://www.w3.org/2000/svg">
<g clip-path="url(#clip0_34_113)">
<path fill-rule="evenodd" clip-rule="evenodd" d="M190 270H76.001V390.454H382.001V322.002C382.001 311.002 391.001 302.002 402.001 302.002H436V166.39H209.999V250C209.999 261 201 270 190 270V270Z" fill="url(#paint0_linear_34_113)"/>
<path d="M485.999 292.267V144.274C485.999 128.898 473.489 116.39 458.113 116.39H219.999V29.9999C219.999 13.4579 206.541 0 189.999 0H30.0009C13.4579 0 0 13.4579 0 29.9999V250C0 265.186 11.342 277.772 26.0009 279.734V412.566C26.0009 427.942 38.5108 440.452 53.8878 440.452H208.482L194.67 492H184.456C171.247 492.471 171.171 511.498 184.456 512H327.544C340.754 511.528 340.828 492.503 327.544 492H317.331L303.518 440.452H372V482.001C372 498.543 385.457 512 401.999 512H481.999C498.541 512 511.999 498.543 511.999 482.001V322.001C512 306.815 500.657 294.228 485.999 292.267ZM392 352.001H492V452H392V352.001ZM492 322.001V332.001H392V322.001C392 316.487 396.486 312.001 402 312.001H482C487.514 312.001 492 316.487 492 322.001ZM19.9999 59.9998H199.999V220H19.9999V59.9998ZM30.0009 19.9999H189.999C195.513 19.9999 199.999 24.4859 199.999 29.9999V39.9998H19.9999V29.9999C19.9999 24.4859 24.4859 19.9999 30.0009 19.9999ZM19.9999 250V240H199.999V250C199.999 255.514 195.513 260 189.999 260H30.0009C24.4859 260 19.9999 255.514 19.9999 250V250ZM296.626 492H215.375L229.187 440.452H282.813L296.626 492ZM53.8878 420.452C49.5388 420.452 46.0008 416.915 46.0008 412.566V280H189.999C206.541 280 219.999 266.542 219.999 250V136.39H458.113C462.462 136.39 465.999 139.927 465.999 144.275V292.002H402C385.458 292.002 372.001 305.46 372.001 322.002V420.453H53.8878V420.452ZM482 492H402C396.486 492 392 487.515 392 482.001V472H492V482.001C492 487.515 487.514 492 482 492Z" fill="#494949"/>
</g>
<defs>
<linearGradient id="paint0_linear_34_113" x1="256" y1="166.39" x2="256" y2="390.454" gradientUnits="userSpaceOnUse">
<stop stop-color="#F3B572"/>
<stop offset="1" stop-color="#48A2FC"/>
</linearGradient>
<clipPath id="clip0_34_113">
<rect width="512" height="512" fill="white"/>
</clipPath>
</defs>
</svg>
