<svg width="512" height="512" viewBox="0 0 512 512" fill="none" xmlns="http://www.w3.org/2000/svg">
<g clip-path="url(#clip0_28_101)">
<path d="M158.579 216.171L135.43 248.888C122.005 267.863 120.373 292.769 131.209 313.333L158.196 364.548L184.732 317.202" fill="url(#paint0_linear_28_101)"/>
<path d="M327.644 317.579L353.804 364.549L380.791 313.334C391.627 292.771 389.995 267.864 376.57 248.889L353.421 216.172" fill="url(#paint1_linear_28_101)"/>
<path d="M256 225.811C284.432 225.811 307.481 202.762 307.481 174.33C307.481 145.898 284.432 122.849 256 122.849C227.568 122.849 204.519 145.898 204.519 174.33C204.519 202.762 227.568 225.811 256 225.811Z" fill="url(#paint2_linear_28_101)"/>
<path d="M510.45 470.029C495.591 446.549 470.185 432.53 442.492 432.53C425.979 432.53 410.264 437.467 396.982 446.651C391.828 435.069 383.962 424.73 374.034 416.673C359.788 405.113 341.833 398.747 323.476 398.747C305.825 398.747 289.069 404.375 275.019 415.024C267.537 420.696 261.092 427.686 255.999 435.543C250.906 427.687 244.462 420.696 236.979 415.024C222.929 404.375 206.173 398.747 188.522 398.747C170.166 398.747 152.21 405.113 137.964 416.673C128.035 424.73 120.17 435.069 115.016 446.651C101.734 437.467 86.019 432.53 69.506 432.53C41.812 432.53 16.407 446.549 1.54805 470.03C0.535047 471.63 -0.00195312 473.484 -0.00195312 475.377V502C-0.00195312 507.523 4.47605 512 9.99805 512H501.998C507.52 512 511.998 507.523 511.998 502V475.376C512 473.483 511.463 471.629 510.45 470.029V470.029ZM492 492H20V478.393C31.337 462.147 49.643 452.53 69.508 452.53C85.878 452.53 101.206 458.995 112.668 470.734C115.229 473.356 119.02 474.368 122.545 473.37C126.072 472.372 128.771 469.525 129.577 465.95C135.853 438.158 160.094 418.747 188.523 418.747C215.002 418.747 238.81 436.511 246.419 461.945C247.686 466.178 251.58 469.079 255.999 469.079C260.418 469.079 264.312 466.179 265.579 461.945C273.188 436.511 296.996 418.747 323.475 418.747C351.905 418.747 376.145 438.158 382.421 465.95C383.228 469.525 385.926 472.372 389.453 473.37C392.977 474.365 396.767 473.356 399.33 470.734C410.792 458.995 426.12 452.53 442.49 452.53C462.355 452.53 480.661 462.147 491.998 478.392V492H492Z" fill="white" fill-opacity="0.76"/>
<path d="M189.234 338.131H216.206C216.16 338.921 216.136 339.716 216.136 340.514C216.136 373.078 250.347 389.274 251.803 389.948C253.135 390.564 254.568 390.871 256 390.871C257.497 390.871 258.995 390.535 260.375 389.863C261.823 389.158 295.864 372.234 295.864 340.514C295.864 339.716 295.84 338.921 295.794 338.131H322.765C327.316 338.131 331.292 335.058 332.441 330.655C333.859 325.221 367.159 197.225 367.159 167.557C367.159 129.906 349.309 90.4869 314.106 50.3949C288.368 21.0839 262.936 2.65389 261.866 1.88289C258.378 -0.627113 253.675 -0.629113 250.184 1.88189C249.114 2.65289 223.669 21.0809 197.92 50.3909C162.7 90.4819 144.842 129.901 144.842 167.553C144.842 197.22 178.141 325.22 179.559 330.654C180.707 335.058 184.684 338.131 189.234 338.131V338.131ZM275.864 340.514C275.864 354.598 262.875 364.87 255.914 369.364C248.98 365.006 236.136 354.979 236.136 340.514C236.136 339.711 236.183 338.915 236.276 338.131H275.725C275.817 338.915 275.864 339.711 275.864 340.514ZM256.021 22.6209C264.857 29.6719 282.424 44.5849 299.797 64.5059H212.224C229.607 44.5829 247.184 29.6699 256.021 22.6209V22.6209ZM196.299 84.5059H315.714C333.114 108.683 347.158 137.505 347.158 167.557C347.158 188.666 325.529 277.232 315.022 318.131H196.977C186.471 277.233 164.842 188.666 164.842 167.554C164.842 137.502 178.892 108.681 196.299 84.5059V84.5059Z" fill="white" fill-opacity="0.76"/>
</g>
<defs>
<linearGradient id="paint0_linear_28_101" x1="154.411" y1="216.171" x2="154.411" y2="364.548" gradientUnits="userSpaceOnUse">
<stop stop-color="#462929"/>
<stop offset="1" stop-color="#00316B"/>
</linearGradient>
<linearGradient id="paint1_linear_28_101" x1="357.777" y1="216.172" x2="357.777" y2="364.549" gradientUnits="userSpaceOnUse">
<stop stop-color="#462929"/>
<stop offset="1" stop-color="#00316B"/>
</linearGradient>
<linearGradient id="paint2_linear_28_101" x1="256" y1="122.849" x2="256" y2="225.811" gradientUnits="userSpaceOnUse">
<stop stop-color="#462929"/>
<stop offset="1" stop-color="#00316B"/>
</linearGradient>
<clipPath id="clip0_28_101">
<rect width="512" height="512" fill="white"/>
</clipPath>
</defs>
</svg>
