<svg width="512" height="512" viewBox="0 0 512 512" fill="none" xmlns="http://www.w3.org/2000/svg">
<g clip-path="url(#clip0_34_236)">
<path d="M274.736 153.597C260.032 168.301 240.759 175.654 221.487 175.654C189.097 175.654 160.92 155.069 150.474 125.45H80.2852V406.593H431.714V125.449H292.5C288.875 135.727 282.957 145.376 274.736 153.597" fill="url(#paint0_linear_34_236)"/>
<path d="M502 396.592H491.918V105.368C491.918 83.245 473.919 65.246 451.796 65.246H299.262C285.67 35.165 255.611 15.083 221.488 15.082C187.374 15.081 157.309 35.156 143.713 65.246H60.204C38.081 65.246 20.082 83.245 20.082 105.368V396.593H10C4.477 396.593 0 401.071 0 406.593V446.919C0 474.489 22.43 496.919 50 496.919H462C489.57 496.919 512 474.489 512 446.919V406.593C512 401.07 507.522 396.592 502 396.592V396.592ZM220.858 35.075C257.008 34.729 286.794 63.829 286.794 100.347C286.794 136.596 257.442 165.623 221.487 165.623C185.528 165.623 156.181 136.59 156.181 100.347C156.182 64.355 185.147 35.417 220.858 35.075ZM40.082 105.368C40.082 94.272 49.108 85.246 60.204 85.246H137.531C136.654 90.184 136.182 95.228 136.182 100.348C136.182 147.798 174.617 185.614 221.488 185.614C240.19 185.614 258.88 179.5 274.31 167.312L288.996 181.998L281.868 189.126C277.963 193.031 277.963 199.363 281.868 203.269L324.468 245.867C336.221 257.622 355.252 257.627 367.009 245.868C378.765 234.114 378.768 215.084 367.01 203.326L324.41 160.726C320.506 156.824 314.172 156.821 310.267 160.726L303.138 167.855L288.457 153.174C303.78 133.826 309.713 109.258 305.446 85.247H451.797C462.893 85.247 471.919 94.273 471.919 105.369V396.594C450.279 396.594 61.456 396.594 40.083 396.594V105.368H40.082ZM317.337 181.939L352.865 217.467C356.806 221.408 356.806 227.783 352.865 231.724C348.925 235.664 342.549 235.665 338.608 231.724L303.079 196.197L317.337 181.939ZM335.207 416.592L325.125 436.755H186.875L176.793 416.592H335.207ZM492 446.918C492 463.46 478.542 476.918 462 476.918H50C33.458 476.918 20 463.46 20 446.918V416.592H154.432L171.75 451.228C173.444 454.616 176.906 456.755 180.694 456.755H331.305C335.093 456.755 338.555 454.615 340.249 451.228L357.567 416.592H492V446.918Z" fill="#494949"/>
<path d="M391.51 356.388V286.102C391.51 280.58 387.032 276.102 381.51 276.102H130.49C124.968 276.102 120.49 280.58 120.49 286.102V356.388C120.49 361.911 124.968 366.388 130.49 366.388H381.51C387.032 366.388 391.51 361.911 391.51 356.388ZM371.51 346.388H140.49V296.102H371.51V346.388Z" fill="#494949"/>
</g>
<defs>
<linearGradient id="paint0_linear_34_236" x1="256" y1="125.449" x2="256" y2="406.593" gradientUnits="userSpaceOnUse">
<stop stop-color="#F3B572"/>
<stop offset="1" stop-color="#48A2FC"/>
</linearGradient>
<clipPath id="clip0_34_236">
<rect width="512" height="512" fill="white"/>
</clipPath>
</defs>
</svg>
