<svg width="512" height="512" viewBox="0 0 512 512" fill="none" xmlns="http://www.w3.org/2000/svg">
<g clip-path="url(#clip0_28_187)">
<path fill-rule="evenodd" clip-rule="evenodd" d="M256.001 401C335.864 401 401.001 335.863 401.001 256C393.584 63.927 118.389 63.98 111.001 256.002C111.001 335.863 176.138 401 256.001 401Z" fill="url(#paint0_linear_28_187)"/>
<path d="M273.438 226C286.692 225.508 286.682 206.487 273.438 206H238.438C232.915 206 228.438 210.477 228.438 216V296C228.438 301.523 232.915 306 238.438 306H273.438C286.692 305.508 286.682 286.487 273.438 286H248.438V266H263.062C276.316 265.508 276.306 246.487 263.062 246H248.438V226H273.438Z" fill="white" fill-opacity="0.76"/>
<path d="M323.438 206C306.896 206 293.438 219.458 293.438 236V276C294.951 315.754 351.939 315.723 353.438 276V236C353.438 219.458 339.979 206 323.438 206ZM333.438 276C332.933 289.251 313.938 289.241 313.438 276V236C313.942 222.748 332.938 222.759 333.438 236V276Z" fill="white" fill-opacity="0.76"/>
<path d="M195.147 248.963L184.512 244.558C182.151 243.58 180.304 241.722 179.312 239.327C178.319 236.931 178.312 234.311 179.291 231.949C180.269 229.588 182.126 227.741 184.521 226.749C186.917 225.757 189.537 225.749 191.899 226.727L197.216 228.929C202.32 231.043 208.169 228.62 210.281 223.517C212.395 218.414 209.971 212.565 204.869 210.452L199.552 208.249C185 201.861 166.583 209.49 160.813 224.296C154.424 238.848 162.052 257.264 176.859 263.037L187.493 267.441C192.283 269.305 194.784 275.345 192.714 280.05C191.736 282.411 189.879 284.259 187.483 285.252C185.087 286.244 182.467 286.251 180.107 285.273L174.791 283.071C169.689 280.957 163.839 283.378 161.725 288.481C159.611 293.584 162.034 299.434 167.136 301.548L172.454 303.752C179.765 306.78 187.821 306.761 195.138 303.73C202.47 300.693 208.172 295.001 211.193 287.704C217.449 272.598 210.251 255.219 195.147 248.963V248.963Z" fill="white" fill-opacity="0.76"/>
<path d="M55.0022 492H10.0002C-3.25377 492.492 -3.24377 511.513 10.0002 512H55.0032C68.2562 511.508 68.2462 492.487 55.0022 492Z" fill="white" fill-opacity="0.76"/>
<path d="M502 492H456.997C443.743 492.492 443.753 511.513 456.997 512H502C515.254 511.508 515.244 492.487 502 492Z" fill="white" fill-opacity="0.76"/>
<path d="M10.0002 20H55.0032C68.2572 19.508 68.2472 0.487 55.0032 0H10.0002C-3.25377 0.492 -3.24377 19.513 10.0002 20Z" fill="white" fill-opacity="0.76"/>
<path d="M502 64.9999C515.254 64.5079 515.244 45.487 502 45H456.997C454.345 45 451.801 46.054 449.926 47.929L411.562 86.2929L398.561 73.2919C395.105 69.8359 389.657 69.3849 385.678 72.2259L359.221 91.1239C340.775 79.5349 320.771 71.2419 299.592 66.4019L294.25 34.355C293.446 29.534 289.274 26 284.386 26H227.614C222.726 26 218.554 29.534 217.75 34.355L212.407 66.4029C191.229 71.2419 171.224 79.5349 152.775 91.1229L126.319 72.2279C122.341 69.3869 116.893 69.8389 113.436 73.2939L100.438 86.2929L62.0741 47.929C60.1981 46.054 57.6551 45 55.0021 45H10.0002C-3.25377 45.492 -3.24377 64.5129 10.0002 64.9999H50.8601L86.2951 100.435L73.2921 113.438C69.8351 116.895 69.3841 122.344 72.2261 126.321L91.118 152.769C79.5281 171.216 71.2331 191.222 66.3911 212.41L34.3552 217.75C29.5342 218.554 26.0002 222.726 26.0002 227.614V284.385C26.0002 289.274 29.5342 293.445 34.3552 294.249L66.4021 299.591C71.2421 320.769 79.5361 340.775 91.1221 359.223L72.2271 385.679C69.3861 389.657 69.8371 395.106 73.2931 398.562L86.2941 411.562L50.8601 446.999H10.0002C-3.25377 447.491 -3.24377 466.512 10.0002 466.999H55.0031C57.6551 466.999 60.1991 465.945 62.0741 464.07L100.439 425.706L113.439 438.706C116.896 442.163 122.344 442.614 126.322 439.772L152.77 420.88C171.216 432.47 191.222 440.764 212.411 445.607L217.752 477.642C218.556 482.463 222.728 485.997 227.616 485.997H284.388C289.277 485.997 293.448 482.463 294.252 477.642L299.594 445.595C320.772 440.755 340.777 432.462 359.226 420.874L385.681 439.77C389.658 442.609 395.107 442.16 398.564 438.703L411.562 425.705L449.926 464.069C451.801 465.944 454.345 466.998 456.997 466.998H502C515.254 466.506 515.244 447.485 502 446.998H461.139L425.704 411.563L438.707 398.56C442.164 395.103 442.615 389.654 439.773 385.676L420.881 359.228C432.471 340.781 440.766 320.775 445.609 299.587L477.644 294.247C482.465 293.443 485.999 289.271 485.999 284.383V227.612C485.999 222.724 482.465 218.552 477.643 217.748L445.598 212.407C440.758 191.23 432.464 171.224 420.874 152.774L439.77 126.317C442.611 122.339 442.16 116.89 438.704 113.434L425.703 100.433L461.14 64.9999H502ZM427.394 223.027C428.18 227.138 431.443 230.325 435.572 231.013L465.999 236.084V275.914L435.582 280.984C431.454 281.672 428.191 284.859 427.404 288.969C422.941 312.309 413.888 334.143 400.499 353.865C398.148 357.327 398.202 361.888 400.635 365.294L418.574 390.408L390.411 418.572L365.29 400.63C361.885 398.197 357.326 398.143 353.864 400.493C334.135 413.881 312.304 422.931 288.975 427.39C284.864 428.176 281.677 431.439 280.989 435.568L275.917 465.999H236.087L231.016 435.582C230.328 431.454 227.141 428.191 223.031 427.404C199.69 422.94 177.856 413.888 158.135 400.5C154.673 398.148 150.112 398.204 146.706 400.636L121.592 418.575L93.428 390.411L111.37 365.29C113.802 361.885 113.857 357.325 111.507 353.863C98.12 334.135 89.0701 312.303 84.6101 288.973C83.8241 284.862 80.5611 281.677 76.4321 280.989L46.0001 275.915V236.086L76.4171 231.015C80.5461 230.327 83.8091 227.14 84.5951 223.03C89.0581 199.69 98.111 177.856 111.5 158.134C113.851 154.671 113.797 150.111 111.364 146.705L93.425 121.59L121.589 93.4259L146.71 111.367C150.115 113.799 154.675 113.854 158.137 111.504C177.866 98.1159 199.698 89.0659 223.026 84.6069C227.137 83.8209 230.324 80.5579 231.012 76.4289L236.085 46H275.915L280.988 76.4299C281.676 80.5579 284.863 83.8219 288.974 84.6079C312.304 89.0679 334.135 98.1179 353.86 111.507C357.321 113.858 361.883 113.803 365.288 111.37L390.41 93.4249L418.574 121.588L400.629 146.71C398.197 150.116 398.142 154.675 400.492 158.138C413.883 177.868 422.934 199.7 427.394 223.027V223.027Z" fill="white" fill-opacity="0.76"/>
<path d="M456.998 20H502.001C515.255 19.508 515.245 0.487 502.001 0H456.998C443.744 0.492 443.754 19.513 456.998 20Z" fill="white" fill-opacity="0.76"/>
</g>
<defs>
<linearGradient id="paint0_linear_28_187" x1="256.001" y1="111.965" x2="256.001" y2="401" gradientUnits="userSpaceOnUse">
<stop stop-color="#462929"/>
<stop offset="1" stop-color="#00316B"/>
</linearGradient>
<clipPath id="clip0_28_187">
<rect width="512" height="512" fill="white"/>
</clipPath>
</defs>
</svg>
