<svg width="512" height="512" viewBox="0 0 512 512" fill="none" xmlns="http://www.w3.org/2000/svg">
<g clip-path="url(#clip0_34_48)">
<path d="M63.7246 159.324H448.274V304.345H63.7246V159.324Z" fill="url(#paint0_linear_34_48)"/>
<path d="M444.843 64.6475H441.149C435.626 64.6475 431.149 69.1245 431.149 74.6475C431.149 80.1705 435.626 84.6475 441.149 84.6475H444.843C450.366 84.6475 454.843 80.1705 454.843 74.6475C454.843 69.1245 450.366 64.6475 444.843 64.6475Z" fill="#494949"/>
<path d="M478.473 22.6318H33.527C15.04 22.6318 0 37.6718 0 56.1598V455.84C0 474.327 15.04 489.367 33.527 489.367H478.473C496.96 489.367 512 474.326 512 455.84V56.1598C512 37.6718 496.96 22.6318 478.473 22.6318V22.6318ZM492 455.84C492 463.299 485.932 469.367 478.473 469.367H33.527C26.068 469.367 20 463.299 20 455.84V126.664H492V455.84ZM492 106.664H20V56.1598C20 48.7008 26.068 42.6328 33.527 42.6328H478.473C485.932 42.6328 492 48.7008 492 56.1598V106.664Z" fill="#494949"/>
<path d="M382.794 64.6475H379.1C373.577 64.6475 369.1 69.1245 369.1 74.6475C369.1 80.1705 373.577 84.6475 379.1 84.6475H382.794C388.317 84.6475 392.794 80.1705 392.794 74.6475C392.794 69.1245 388.317 64.6475 382.794 64.6475Z" fill="#494949"/>
<path d="M320.746 64.6475H317.052C311.529 64.6475 307.052 69.1245 307.052 74.6475C307.052 80.1705 311.529 84.6475 317.052 84.6475H320.746C326.269 84.6475 330.746 80.1705 330.746 74.6475C330.746 69.1245 326.269 64.6475 320.746 64.6475Z" fill="#494949"/>
<path d="M137.468 64.6475H67.1572C61.6342 64.6475 57.1572 69.1245 57.1572 74.6475C57.1572 80.1705 61.6342 84.6475 67.1572 84.6475H137.468C142.991 84.6475 147.468 80.1705 147.468 74.6475C147.468 69.1245 142.991 64.6475 137.468 64.6475Z" fill="#494949"/>
<path d="M63.7256 446.707H226C231.523 446.707 236 442.23 236 436.707V344.196C236 338.673 231.523 334.196 226 334.196H63.7256C58.2026 334.196 53.7256 338.673 53.7256 344.196V436.707C53.7256 442.23 58.2026 446.707 63.7256 446.707ZM94.1696 426.707L144.565 401.613L194.96 426.707H94.1696ZM216 414.841L167 390.442L216 366.043V414.841ZM194.92 354.196L144.565 379.27L94.2096 354.196H194.92ZM73.7256 366.339L122.131 390.442L73.7256 414.545V366.339Z" fill="#494949"/>
<path d="M286 446.707H448.274C453.797 446.707 458.274 442.23 458.274 436.707V344.196C458.274 338.673 453.797 334.196 448.274 334.196H286C280.477 334.196 276 338.673 276 344.196V436.707C276 442.23 280.477 446.707 286 446.707ZM316.742 426.707L367.137 401.613L417.532 426.707H316.742ZM438.274 414.693L389.571 390.442L438.274 366.191V414.693ZM417.492 354.196L367.137 379.27L316.782 354.196H417.492ZM296 366.19L344.703 390.441L296 414.693V366.19Z" fill="#494949"/>
</g>
<defs>
<linearGradient id="paint0_linear_34_48" x1="255.999" y1="159.324" x2="255.999" y2="304.345" gradientUnits="userSpaceOnUse">
<stop stop-color="#F3B572"/>
<stop offset="1" stop-color="#48A2FC"/>
</linearGradient>
<clipPath id="clip0_34_48">
<rect width="512" height="512" fill="white"/>
</clipPath>
</defs>
</svg>
